# This file uses feet as units for non-parametric coordinates.

g default
v -93.998154 2.022762 -822.574768
v 208.058365 2.022762 -822.574768
v -93.998154 97.439728 -822.574768
v 208.058365 97.439728 -822.574768
v -93.998154 97.439728 -1124.631226
v 208.058365 97.439728 -1124.631226
v -93.998154 2.022762 -1124.631226
v 208.058365 2.022762 -1124.631226
v -127.042206 -0.016404 -1042.118408
v -127.009399 -0.016404 -1042.118408
v -127.042206 0.016404 -1042.118408
v -127.009399 0.016404 -1042.118408
v -127.042206 0.016404 -1042.151245
v -127.009399 0.016404 -1042.151245
v -127.042206 -0.016404 -1042.151245
v -127.009399 -0.016404 -1042.151245
v -58.149075 96.477394 -853.015137
v 183.788208 96.477394 -853.015137
v -58.149075 97.035736 -853.015137
v 183.788208 97.035736 -853.015137
v -58.149075 96.492752 -1096.497070
v 183.788208 96.492752 -1096.497070
v -58.149075 96.477394 -1096.497070
v 183.788208 96.477394 -1096.497070
v 183.788208 336.133881 -976.306763
v -58.149075 336.133881 -976.306763
v -58.149075 96.477394 -976.306763
v 183.788208 96.477394 -976.306763
vt 0.375000 0.000000
vt 0.625000 0.000000
vt 0.625000 0.250000
vt 0.375000 0.250000
vt 0.625000 0.500000
vt 0.375000 0.500000
vt 0.625000 0.750000
vt 0.375000 0.750000
vt 0.625000 1.000000
vt 0.375000 1.000000
vt 0.875000 0.000000
vt 0.875000 0.250000
vt 0.125000 0.000000
vt 0.125000 0.250000
vt 0.375000 0.000000
vt 0.625000 0.000000
vt 0.625000 0.250000
vt 0.375000 0.250000
vt 0.625000 0.500000
vt 0.375000 0.500000
vt 0.625000 0.750000
vt 0.375000 0.750000
vt 0.625000 1.000000
vt 0.375000 1.000000
vt 0.875000 0.000000
vt 0.875000 0.250000
vt 0.125000 0.000000
vt 0.125000 0.250000
vt 0.375000 0.000000
vt 0.625000 0.000000
vt 0.625000 0.250000
vt 0.375000 0.250000
vt 0.625000 0.379651
vt 0.375000 0.379651
vt 0.375000 0.500000
vt 0.625000 0.500000
vt 0.625000 0.750000
vt 0.375000 0.750000
vt 0.375000 0.870349
vt 0.625000 0.870349
vt 0.625000 1.000000
vt 0.375000 1.000000
vt 0.754651 0.000000
vt 0.754651 0.250000
vt 0.245349 0.000000
vt 0.245349 0.250000
vt 0.125000 0.000000
vt 0.125000 0.250000
vt 0.875000 0.000000
vt 0.875000 0.250000
vn 0.000000 0.000000 1.000000
vn 0.000000 0.000000 1.000000
vn 0.000000 0.000000 1.000000
vn 0.000000 0.000000 1.000000
vn 0.000000 1.000000 0.000000
vn 0.000000 1.000000 0.000000
vn 0.000000 1.000000 0.000000
vn 0.000000 1.000000 0.000000
vn 0.000000 0.000000 -1.000000
vn 0.000000 0.000000 -1.000000
vn 0.000000 0.000000 -1.000000
vn 0.000000 0.000000 -1.000000
vn 0.000000 -1.000000 0.000000
vn 0.000000 -1.000000 0.000000
vn 0.000000 -1.000000 0.000000
vn 0.000000 -1.000000 0.000000
vn 1.000000 0.000000 0.000000
vn 1.000000 0.000000 0.000000
vn 1.000000 0.000000 0.000000
vn 1.000000 0.000000 0.000000
vn -1.000000 0.000000 0.000000
vn -1.000000 0.000000 0.000000
vn -1.000000 0.000000 0.000000
vn -1.000000 0.000000 0.000000
vn 0.000000 0.000000 1.000000
vn 0.000000 0.000000 1.000000
vn 0.000000 0.000000 1.000000
vn 0.000000 0.000000 1.000000
vn 0.000000 1.000000 0.000000
vn 0.000000 1.000000 0.000000
vn 0.000000 1.000000 0.000000
vn 0.000000 1.000000 0.000000
vn 0.000000 0.000000 -1.000000
vn 0.000000 0.000000 -1.000000
vn 0.000000 0.000000 -1.000000
vn 0.000000 0.000000 -1.000000
vn 0.000000 -1.000000 0.000000
vn 0.000000 -1.000000 0.000000
vn 0.000000 -1.000000 0.000000
vn 0.000000 -1.000000 0.000000
vn 1.000000 0.000000 0.000000
vn 1.000000 0.000000 0.000000
vn 1.000000 0.000000 0.000000
vn 1.000000 0.000000 0.000000
vn -1.000000 0.000000 0.000000
vn -1.000000 0.000000 0.000000
vn -1.000000 0.000000 0.000000
vn -1.000000 0.000000 0.000000
vn 0.000000 0.000000 1.000000
vn 0.000000 0.000000 1.000000
vn 0.000000 0.000000 1.000000
vn 0.000000 0.000000 1.000000
vn 0.000000 0.458309 0.888793
vn 0.000000 0.458309 0.888793
vn 0.000000 0.999998 -0.002230
vn 0.000000 0.999998 -0.002230
vn 0.000000 0.000000 -1.000000
vn 0.000000 0.000000 -1.000000
vn 0.000000 0.000000 -1.000000
vn 0.000000 0.000000 -1.000000
vn 0.000000 -1.000000 0.000000
vn 0.000000 -1.000000 0.000000
vn 0.000000 -1.000000 0.000000
vn 0.000000 -1.000000 0.000000
vn 1.000000 0.000000 0.000000
vn 1.000000 0.000000 0.000000
vn 1.000000 0.000000 0.000000
vn 1.000000 0.000000 0.000000
vn -1.000000 0.000000 0.000000
vn -1.000000 0.000000 0.000000
vn -1.000000 0.000000 0.000000
vn -1.000000 0.000000 0.000000
vn 0.000000 0.448317 -0.893875
vn 0.000000 0.448317 -0.893875
vn -1.000000 0.000000 0.000000
vn -1.000000 0.000000 0.000000
vn 0.000000 -1.000000 0.000000
vn 0.000000 -1.000000 0.000000
vn 1.000000 0.000000 0.000000
vn 1.000000 0.000000 0.000000
s off
g polySurface9
f 1/1/1 2/2/2 4/3/3 3/4/4
f 3/4/5 4/3/6 6/5/7 5/6/8
f 5/6/9 6/5/10 8/7/11 7/8/12
f 7/8/13 8/7/14 2/9/15 1/10/16
f 2/2/17 8/11/18 6/12/19 4/3/20
f 7/13/21 1/1/22 3/4/23 5/14/24
f 9/15/25 10/16/26 12/17/27 11/18/28
f 11/18/29 12/17/30 14/19/31 13/20/32
f 13/20/33 14/19/34 16/21/35 15/22/36
f 15/22/37 16/21/38 10/23/39 9/24/40
f 10/16/41 16/25/42 14/26/43 12/17/44
f 15/27/45 9/15/46 11/18/47 13/28/48
f 17/29/49 18/30/50 20/31/51 19/32/52
s 1
f 19/32/53 20/31/54 25/33/55 26/34/56
s off
f 21/35/57 22/36/58 24/37/59 23/38/60
s 2
f 27/39/61 28/40/62 18/41/63 17/42/64
s 3
f 18/30/65 28/43/66 25/44/67 20/31/68
s 4
f 27/45/69 17/29/70 19/32/71 26/46/72
s 1
f 26/34/56 25/33/55 22/36/73 21/35/74
s 4
f 23/47/75 27/45/69 26/46/72 21/48/76
s 2
f 23/38/77 24/37/78 28/40/62 27/39/61
s 3
f 25/44/67 28/43/66 24/49/79 22/50/80
