# This file uses feet as units for non-parametric coordinates.

g default
v -59.135735 96.708138 -3.379059
v 180.086029 96.708138 -3.379059
v -59.135735 339.143341 -3.379059
v 180.086029 339.143341 -3.379059
v -59.135735 258.834503 -124.596657
v 180.086029 258.834503 -124.596657
v -59.135735 339.143341 -245.814255
v 180.086029 339.143341 -245.814255
v -59.135735 96.708138 -245.814255
v 180.086029 96.708138 -245.814255
v -59.135735 96.708138 -124.596657
v 180.086029 96.708138 -124.596657
v -93.998154 2.022762 23.436096
v 208.058365 2.022762 23.436096
v -93.998154 97.439728 23.436096
v 208.058365 97.439728 23.436096
v -93.998154 97.439728 -278.620422
v 208.058365 97.439728 -278.620422
v -93.998154 2.022762 -278.620422
v 208.058365 2.022762 -278.620422
vt 0.375000 0.000000
vt 0.625000 0.000000
vt 0.375000 0.250000
vt 0.625000 0.250000
vt 0.375000 0.375000
vt 0.625000 0.375000
vt 0.375000 0.500000
vt 0.625000 0.500000
vt 0.375000 0.750000
vt 0.625000 0.750000
vt 0.375000 0.875000
vt 0.625000 0.875000
vt 0.375000 1.000000
vt 0.625000 1.000000
vt 0.875000 0.000000
vt 0.750000 0.000000
vt 0.875000 0.250000
vt 0.750000 0.250000
vt 0.125000 0.000000
vt 0.250000 0.000000
vt 0.125000 0.250000
vt 0.250000 0.250000
vt 0.375000 0.000000
vt 0.625000 0.000000
vt 0.625000 0.250000
vt 0.375000 0.250000
vt 0.625000 0.500000
vt 0.375000 0.500000
vt 0.625000 0.750000
vt 0.375000 0.750000
vt 0.625000 1.000000
vt 0.375000 1.000000
vt 0.875000 0.000000
vt 0.875000 0.250000
vt 0.125000 0.000000
vt 0.125000 0.250000
vn 0.000000 0.000000 1.000000
vn 0.000000 0.000000 1.000000
vn 0.000000 0.000000 1.000000
vn 0.000000 0.000000 1.000000
vn 0.000000 0.833643 -0.552304
vn 0.000000 0.833643 -0.552304
vn 0.000000 1.000000 0.000000
vn 0.000000 1.000000 0.000000
vn 0.000000 0.833643 0.552304
vn 0.000000 0.833643 0.552304
vn 0.000000 0.000000 -1.000000
vn 0.000000 0.000000 -1.000000
vn 0.000000 0.000000 -1.000000
vn 0.000000 0.000000 -1.000000
vn 0.000000 -1.000000 0.000000
vn 0.000000 -1.000000 0.000000
vn 0.000000 -1.000000 0.000000
vn 0.000000 -1.000000 0.000000
vn 0.000000 -1.000000 0.000000
vn 0.000000 -1.000000 0.000000
vn 1.000000 0.000000 0.000000
vn 1.000000 0.000000 0.000000
vn 1.000000 0.000000 0.000000
vn 1.000000 0.000000 0.000000
vn 1.000000 0.000000 0.000000
vn 1.000000 0.000000 0.000000
vn -1.000000 0.000000 0.000000
vn -1.000000 0.000000 0.000000
vn -1.000000 0.000000 0.000000
vn -1.000000 0.000000 0.000000
vn -1.000000 0.000000 0.000000
vn -1.000000 0.000000 0.000000
vn 0.000000 0.000000 1.000000
vn 0.000000 0.000000 1.000000
vn 0.000000 0.000000 1.000000
vn 0.000000 0.000000 1.000000
vn 0.000000 1.000000 0.000000
vn 0.000000 1.000000 0.000000
vn 0.000000 1.000000 0.000000
vn 0.000000 1.000000 0.000000
vn 0.000000 0.000000 -1.000000
vn 0.000000 0.000000 -1.000000
vn 0.000000 0.000000 -1.000000
vn 0.000000 0.000000 -1.000000
vn 0.000000 -1.000000 0.000000
vn 0.000000 -1.000000 0.000000
vn 0.000000 -1.000000 0.000000
vn 0.000000 -1.000000 0.000000
vn 1.000000 0.000000 0.000000
vn 1.000000 0.000000 0.000000
vn 1.000000 0.000000 0.000000
vn 1.000000 0.000000 0.000000
vn -1.000000 0.000000 0.000000
vn -1.000000 0.000000 0.000000
vn -1.000000 0.000000 0.000000
vn -1.000000 0.000000 0.000000
s off
g pCube6
f 1/1/1 2/2/2 4/4/3 3/3/4
s 1
f 3/3/5 4/4/6 6/6/7 5/5/8
f 5/5/8 6/6/7 8/8/9 7/7/10
s off
f 7/7/11 8/8/12 10/10/13 9/9/14
s 2
f 9/9/15 10/10/16 12/12/17 11/11/18
f 11/11/18 12/12/17 2/14/19 1/13/20
s 3
f 12/16/21 10/15/22 8/17/23 6/18/24
f 2/2/25 12/16/21 6/18/24 4/4/26
s 4
f 9/19/27 11/20/28 5/22/29 7/21/30
f 11/20/28 1/1/31 3/3/32 5/22/29
s off
f 13/23/33 14/24/34 16/25/35 15/26/36
f 15/26/37 16/25/38 18/27/39 17/28/40
f 17/28/41 18/27/42 20/29/43 19/30/44
f 19/30/45 20/29/46 14/31/47 13/32/48
f 14/24/49 20/33/50 18/34/51 16/25/52
f 19/35/53 13/23/54 15/26/55 17/36/56
